<svg width="24" height="24" viewBox="0 0 24 24" fill="none" xmlns="http://www.w3.org/2000/svg">
<path d="M9.87913 18.364L12.7076 15.5356L14.1218 16.9498L11.2933 19.7782C9.34073 21.7308 6.1749 21.7308 4.22228 19.7782C2.26966 17.8256 2.26966 14.6598 4.22228 12.7071L7.05071 9.87871L8.46492 11.2929L5.63649 14.1213C4.46492 15.2929 4.46492 17.1924 5.63649 18.364C6.80806 19.5356 8.70756 19.5356 9.87913 18.364Z" fill="black" fill-opacity="0.96"/>
<path d="M16.9502 14.1213L15.536 12.7071L18.3644 9.87871C19.536 8.70713 19.536 6.80764 18.3644 5.63606C17.1928 4.46449 15.2933 4.46449 14.1218 5.63607L11.2933 8.46449L9.87913 7.05028L12.7076 4.22185C14.6602 2.26923 17.826 2.26923 19.7786 4.22185C21.7312 6.17447 21.7312 9.3403 19.7786 11.2929L16.9502 14.1213Z" fill="black" fill-opacity="0.96"/>
<path d="M15.536 7.05028L7.05071 15.5356L8.46492 16.9498L16.9502 8.46449L15.536 7.05028Z" fill="black" fill-opacity="0.96"/>
</svg>
